<svg xmlns="http://www.w3.org/2000/svg" viewBox="0 0 968 736" fill="none" preserveAspectRatio="xMidYMid meet">
  <g transform="translate(130.45 68.51) scale(.97637 .97301)">
    <path d="M 163.96 350.86 L 163.8 345.83 L 163.33 340.77 L 162.86 335.67 L 162.73 330.56 L 162.75 325.43 L 161.9 320.13 L 159.76 314.51 L 156.47 308.47 L 153.77 302.33 L 152.36 296.32 L 152.33 290.56 L 152.33 284.71 L 151.77 278.57 L 149.98 271.81 L 147.71 264.62 L 145.07 256.99 L 142.85 249.24 L 140.93 241.32 L 139.56 233.39 L 138.59 225.39 L 138.36 217.54 L 139.39 210.25 L 141.9 203.77 L 145.73 198.15 L 150.41 193.17 L 155.77 188.79 L 161.66 184.95 L 167.64 181.34 L 173.09 177.37 L 177.63 172.58 L 181.38 166.95 L 184.69 160.71 L 187.76 153.99 L 190.68 146.83 L 193.56 139.3 L 196.61 131.61 L 199.57 123.39 L 202.15 114.1 L 204.4 103.63 L 206.9 92.79 L 210.27 82.64 L 214.38 73.12 L 219.19 64.25 L 224.54 55.83 L 230.68 48.57 L 237.43 42.25 L 244.72 36.91 L 252.34 32.17 L 260.3 28.15 L 268.55 24.92 L 277.05 22.5 L 285.73 20.81 L 294.49 19.61 L 303.29 18.87 L 312.14 18.67 L 320.99 18.93 L 329.78 19.35 L 338.5 19.47 L 347.18 19.29 L 355.86 19.03 L 364.55 18.86 L 373.25 18.97 L 381.94 19.46 L 390.57 20.61 L 399.06 22.66 L 407.34 25.74 L 415.39 29.61 L 423.26 33.7 L 431.06 37.56 L 438.83 41.16 L 446.47 44.9 L 453.92 49.01 L 461.09 53.64 L 468.08 58.44 L 474.89 63.43 L 481.51 68.58 L 487.84 74.1 L 493.8 80.07 L 499.32 86.59 L 504.24 93.8 L 508.59 101.57 L 512.51 109.58 L 516.17 117.55 L 519.6 125.44 L 522.78 133.27 L 525.67 141.11 L 528.29 148.92 L 530.41 156.96 L 532.02 165.19 L 533.22 173.46 L 534.03 181.74 L 534.21 190.24 L 533.42 199.18 L 531.68 208.45 L 529.45 217.63 L 526.78 226.65 L 523.84 235.39 L 520.09 244.19 L 515.78 252.84 L 511.38 261.05 L 507.52 268.5 L 504.36 275.18 L 501.69 281.29 L 499.5 286.9 L 497.66 292.11 L 494.97 297.45 L 490.98 303 L 485.65 308.68 L 480.61 313.9 L 476.42 318.55 L 472.95 322.75 L 469.78 326.64 L 466.78 330.3 L 464.51 333.65 L 463.06 336.75 L 462.47 339.66 L 462.29 342.48 L 462.26 345.29 L 462.24 348.08 L 462.23 350.86 L 462.08 353.65 L 461.8 356.42 L 461.4 359.17 L 461.46 361.96 L 462.22 364.87 L 463.95 367.99 L 466.1 371.3 L 468.27 374.76 L 470.74 378.45 L 475.67 382.97 L 484.72 389.04 L 497.44 396.88 L 512.9 406.49 L 530.09 417.76 L 551.91 432.09 L 578.31 449.93 L 609.83 472.03 L 641.17 496.27 L 667.27 519.99 L 683.93 540.32 L 691.54 556.62 L 694.2 570.64 L 694.63 583.75 L 695.13 597.42 L 695.46 611.51 L 695.94 626.32 L 695.77 641.25 L 694.3 655.68 L 690.39 668.4 L 682.88 677.96 L 671.66 683.73 L 657.58 686.04 L 642.4 686.45 L 627.39 686.26 L 612.99 686.05 L 599.22 685.91 L 585.9 685.66 L 573.09 685.45 L 560.72 685.24 L 548.8 685.12 L 537.22 684.97 L 525.97 684.8 L 515.02 684.63 L 504.37 684.51 L 493.99 684.42 L 483.82 684.29 L 473.85 684.15 L 464.08 683.99 L 454.48 683.88 L 445.04 683.76 L 435.74 683.68 L 426.57 683.6 L 417.5 683.53 L 408.52 683.44 L 399.62 683.33 L 390.79 683.22 L 382 683.1 L 373.26 682.99 L 364.56 682.91 L 355.86 682.87 L 347.17 682.91 L 338.46 682.99 L 329.72 683.1 L 320.94 683.22 L 312.11 683.33 L 303.2 683.44 L 294.22 683.53 L 285.16 683.6 L 275.98 683.68 L 266.69 683.76 L 257.25 683.88 L 247.65 683.99 L 237.87 684.15 L 227.9 684.29 L 217.74 684.42 L 207.35 684.51 L 196.71 684.63 L 185.76 684.8 L 174.51 684.97 L 162.93 685.12 L 151.01 685.24 L 138.64 685.45 L 125.83 685.66 L 112.5 685.91 L 98.74 686.05 L 84.34 686.26 L 69.32 686.45 L 54.28 685.89 L 40.34 683.44 L 29.14 677.67 L 21.78 667.98 L 18.99 654.27 L 20.38 637.47 L 24.56 619.22 L 30.31 600.74 L 36.73 582.79 L 43.8 565.39 L 51.12 548.82 L 58.74 532.99 L 66.3 518.09 L 74.68 503.57 L 85.81 488.5 L 103.84 471.1 L 126.29 453.1 L 147.89 437.03 L 160 426.07 L 164.54 418.63 L 165 412.9 L 166.05 407.1 L 167.41 401.37 L 168.43 395.87 L 168.5 390.7 L 167.34 385.81 L 165.32 381.05 L 163.46 376.2 L 162.38 371.2 L 162.14 366.11 L 162.67 360.99 L 163.38 355.91 Z" stroke="#000" stroke-width="3" stroke-linejoin="round" stroke-linecap="round" vector-effect="non-scaling-stroke"/>
  </g>
</svg>
