<svg version="1.1" id="Layer_1" xmlns:x="ns_extend;" xmlns:i="ns_ai;" xmlns:graph="ns_graphs;" xmlns="http://www.w3.org/2000/svg" xmlns:xlink="http://www.w3.org/1999/xlink" x="0px" y="0px" viewBox="0 0 445.7 88" style="enable-background:new 0 0 445.7 88;" xml:space="preserve">
 <style type="text/css">
  .st0{fill:#080A0A;}
 </style>
 <metadata>
  <sfw xmlns="ns_sfw;">
   <slices>
   </slices>
   <sliceSourceBounds bottomLeftOrigin="true" height="88" width="445.7" x="232.8" y="-294.5">
   </sliceSourceBounds>
  </sfw>
 </metadata>
 <g>
  <path class="st0" d="M410.1,39.1h25.4c-0.7-7-4.8-11.7-12.4-11.7C415.9,27.4,411.4,32,410.1,39.1z M423,69.4
		c-15.5,0-23.4-11.4-23.4-25.4s9.2-25.4,23.6-25.4c14.5,0,22.5,11.2,22.5,24c0,1.5-0.1,3.7-0.3,4.6h-35.7
		c0.5,7.8,4.9,13.3,12.7,13.3c6.4,0,10.3-3,11.9-8.7h10.4C442.5,62.2,435.5,69.4,423,69.4L423,69.4z M344.3,43.6
		c0-14.7,9-25,22.2-25c9.1,0,15,5.3,17.2,12.4c0.1,0.3,0.4,0.3,0.4,0V19.4h9.6v43c0,15.3-8.5,25.6-25.3,25.6
		c-13,0-21.3-6.6-22.5-16.4h10.4c0.8,4.1,3.9,7.6,12.3,7.6c10.7,0,15.3-6.7,15.5-16.5l0.1-6.2c0-0.3-0.3-0.3-0.4,0
		c-2.3,7.4-9,12-17.3,12C353.3,68.5,344.3,58.2,344.3,43.6L344.3,43.6z M383,43.6c0-9.4-5.6-16.2-14.3-16.2
		c-9.7,0-14.2,6.8-14.2,16.2c0,9.4,4.5,16.2,14.2,16.2C377.4,59.8,383,52.8,383,43.6L383,43.6z M315.9,19.4h9.1L324.9,31
		c0,0.3,0.3,0.3,0.4,0c2.5-7.3,5.8-12.4,17.2-12.4v9.7c-12.9-0.4-16.8,6.8-16.8,17v23.3h-9.8V19.4z M272.1,44
		c0,9.4,4.6,16.6,13.7,16.6s13.7-7.2,13.7-16.6s-4.6-16.6-13.7-16.6S272.1,34.6,272.1,44z M309.8,44c0,14.1-9.1,25.4-24,25.4
		c-15,0-24-11.3-24-25.4s9.1-25.4,24-25.4C300.7,18.6,309.8,29.9,309.8,44z M236.6,68.6V27.9h-7.5v-8.5h7.7v-1.2
		c0-11.8,6.5-18.9,23.2-18v9.3c-10.4-1-13.7,2.6-13.7,10h13.7v8.5h-13.7v40.8L236.6,68.6L236.6,68.6z M190.7,39.1h25.4
		c-0.7-7-4.8-11.7-12.4-11.7C196.5,27.4,192,32,190.7,39.1z M203.6,69.4c-15.5,0-23.4-11.4-23.4-25.4s9.2-25.4,23.6-25.4
		c14.5,0,22.5,11.2,22.5,24c0,1.5-0.1,3.7-0.3,4.6h-35.7c0.5,7.8,4.9,13.3,12.7,13.3c6.4,0,10.3-3,11.9-8.7h10.4
		C223.1,62.2,216.2,69.4,203.6,69.4L203.6,69.4z M135.1,34.7h14.1c10,0,15.6-4.3,15.6-12.5c0-7.4-4.1-11.7-14.9-11.7h-14.8
		L135.1,34.7L135.1,34.7z M124.6,68.6V1.5h25c18,0,25.7,7.7,25.7,19.7c0,8.9-5.6,17.3-19.5,17.9c-0.3,0-0.3,0.4,0,0.4
		c14.4,1.6,21.9,14,21.9,29.1h-11c0-13.5-5.9-25-20.3-25h-11.3v25L124.6,68.6L124.6,68.6z">
  </path>
  <g>
   <g>
    <path class="st0" d="M13.9,0.6c-0.3-0.1-0.2-0.5,0.1-0.5c6.7-0.4,13.5,0.1,17.5,1c7.1,1.6,13.5,4.4,18,11.2
				c1.9,2.9,3.3,6.2,3.7,9.5c0,0.2-0.1,0.4-0.3,0.4c0,0,0,0,0,0H28.8c-0.2,0-0.3-0.1-0.4-0.3C27.9,14.2,23.7,4.8,13.9,0.6z
				 M76.9,67.9c0.3,0.1,0.2,0.5-0.1,0.5c-6.7,0.4-13.5-0.1-17.5-1c-7.1-1.6-13.5-4.4-18-11.2c-1.9-2.9-3.3-6.2-3.7-9.5
				c0-0.2,0.1-0.4,0.3-0.4c0,0,0,0,0,0H62c0.2,0,0.3,0.1,0.4,0.3C62.9,54.4,67.1,63.7,76.9,67.9z M26.9,24.6
				c0.2-0.2-0.1-0.5-0.3-0.4C20.8,26.6-4.5,38.6,0.7,55c4.5,14.3,28.6,13.7,34.2,13.4c0.3,0,0.3-0.4,0.1-0.5
				c-10-4.2-14.1-13.8-14.5-21.6C20.2,40.6,21.6,32,26.9,24.6L26.9,24.6z M64,43.9c-0.2,0.2,0.1,0.5,0.3,0.4
				c5.8-2.4,31-14.5,25.9-30.9C85.7-0.8,61.6-0.2,56,0.1c-0.3,0-0.3,0.4-0.1,0.5c10,4.2,14.1,13.8,14.5,21.6
				C70.7,27.9,69.3,36.5,64,43.9L64,43.9z">
    </path>
   </g>
  </g>
 </g>
</svg>